<svg version="1.1" viewBox="0.0 0.0 960.0 720.0" fill="none" stroke="none" stroke-linecap="square" stroke-miterlimit="10" xmlns:xlink="http://www.w3.org/1999/xlink" xmlns="http://www.w3.org/2000/svg"><clipPath id="p.0"><path d="m0 0l960.0 0l0 720.0l-960.0 0l0 -720.0z" clip-rule="nonzero"/></clipPath><g clip-path="url(#p.0)"><path fill="#000000" fill-opacity="0.0" d="m0 0l960.0 0l0 720.0l-960.0 0z" fill-rule="evenodd"/><defs><radialGradient id="p.1" gradientUnits="userSpaceOnUse" gradientTransform="matrix(31.11319925656959 0.0 0.0 31.11319925656959 0.0 0.0)" spreadMethod="pad" cx="27.57519730429389" cy="20.68140153710697" fx="27.57519730429389" fy="20.68140153710697" r="31.11319923400879"><stop offset="0.0" stop-color="#000000"/><stop offset="1.0" stop-color="#212121"/></radialGradient></defs><path fill="url(#p.1)" d="m102.04741 642.9054l0 0c0.19287872 -333.76025 169.35023 -604.1634 377.9505 -604.1652c208.60025 -0.0018501282 377.7595 270.39825 377.95468 604.1585l-377.95258 0.56585693z" fill-rule="evenodd"/><path stroke="#000000" stroke-width="1.0" stroke-linejoin="round" stroke-linecap="butt" d="m102.04741 642.9054l0 0c0.19287872 -333.76025 169.35023 -604.1634 377.9505 -604.1652c208.60025 -0.0018501282 377.7595 270.39825 377.95468 604.1585l-377.95258 0.56585693z" fill-rule="evenodd"/><path fill="#000000" d="m234.3307 295.74802l0 0c0 -135.67938 109.98988 -245.66928 245.6693 -245.66928l0 0c65.15552 0 127.64252 25.882938 173.71442 71.954865c46.07196 46.071938 71.954895 108.558876 71.954895 173.71442l0 0c0 135.67941 -109.98993 245.66928 -245.66931 245.66928l0 0c-135.67941 0 -245.6693 -109.98987 -245.6693 -245.66928z" fill-rule="evenodd"/><path stroke="#666666" stroke-width="1.0" stroke-linejoin="round" stroke-linecap="butt" d="m234.3307 295.74802l0 0c0 -135.67938 109.98988 -245.66928 245.6693 -245.66928l0 0c65.15552 0 127.64252 25.882938 173.71442 71.954865c46.07196 46.071938 71.954895 108.558876 71.954895 173.71442l0 0c0 135.67941 -109.98993 245.66928 -245.66931 245.66928l0 0c-135.67941 0 -245.6693 -109.98987 -245.6693 -245.66928z" fill-rule="evenodd"/><defs><linearGradient id="p.2" gradientUnits="userSpaceOnUse" gradientTransform="matrix(21.29659473975894 0.0 0.0 21.29659473975894 0.0 0.0)" spreadMethod="pad" x1="11.890555722691994" y1="3.2387683747410754" x2="11.890478695356519" y2="24.53536311436072"><stop offset="0.0" stop-color="#4d4d4d"/><stop offset="1.0" stop-color="#000000"/></linearGradient></defs><path fill="url(#p.2)" d="m253.22835 295.74802l0 0c0 -125.24251 101.52913 -226.77164 226.77165 -226.77164l0 0c60.143555 0 117.82385 23.891945 160.35175 66.419876c42.527954 42.52794 66.41992 100.20819 66.41992 160.35176l0 0c0 125.24255 -101.52911 226.7717 -226.77167 226.7717l0 0c-125.24252 0 -226.77165 -101.529144 -226.77165 -226.7717z" fill-rule="evenodd"/><path stroke="#666666" stroke-width="1.0" stroke-linejoin="round" stroke-linecap="butt" d="m253.22835 295.74802l0 0c0 -125.24251 101.52913 -226.77164 226.77165 -226.77164l0 0c60.143555 0 117.82385 23.891945 160.35175 66.419876c42.527954 42.52794 66.41992 100.20819 66.41992 160.35176l0 0c0 125.24255 -101.52911 226.7717 -226.77167 226.7717l0 0c-125.24252 0 -226.77165 -101.529144 -226.77165 -226.7717z" fill-rule="evenodd"/><defs><linearGradient id="p.3" gradientUnits="userSpaceOnUse" gradientTransform="matrix(19.441042140458677 0.0 0.0 19.441042140458677 0.0 0.0)" spreadMethod="pad" x1="14.969548440080583" y1="5.492004449803979" x2="14.96947777248488" y2="24.933046590134218"><stop offset="0.0" stop-color="#ffffff"/><stop offset="1.0" stop-color="#b3b3b3"/></linearGradient></defs><path fill="url(#p.3)" d="m291.02362 295.74802l0 0c0 -104.36876 84.607605 -188.97636 188.97638 -188.97636l0 0c50.11963 0 98.18652 19.909958 133.62646 55.3499c35.43994 35.43994 55.349915 83.506836 55.349915 133.62646l0 0c0 104.368774 -84.607605 188.97638 -188.97638 188.97638l0 0c-104.368774 0 -188.97638 -84.607605 -188.97638 -188.97638z" fill-rule="evenodd"/></g></svg>